<mxfile host="65bd71144e">
    <diagram id="DYInCKH9kS3JKAuh5Kfn" name="第 1 页">
        <mxGraphModel dx="2723" dy="1820" grid="0" gridSize="10" guides="1" tooltips="1" connect="1" arrows="1" fold="1" page="0" pageScale="1" pageWidth="1169" pageHeight="827" math="0" shadow="0">
            <root>
                <mxCell id="0"/>
                <mxCell id="1" parent="0"/>
                <mxCell id="2" value="&lt;font style=&quot;font-size: 22px&quot;&gt;主界面线程&lt;/font&gt;" style="rounded=1;whiteSpace=wrap;html=1;" parent="1" vertex="1">
                    <mxGeometry x="-49" y="586" width="150" height="60" as="geometry"/>
                </mxCell>
                <mxCell id="3" value="&lt;font style=&quot;font-size: 22px&quot;&gt;绘图线程&lt;/font&gt;" style="rounded=1;whiteSpace=wrap;html=1;" parent="1" vertex="1">
                    <mxGeometry x="121" y="796" width="140" height="60" as="geometry"/>
                </mxCell>
                <mxCell id="5" value="&lt;font style=&quot;font-size: 22px&quot;&gt;串口线程&lt;/font&gt;" style="whiteSpace=wrap;html=1;rounded=1;" parent="1" vertex="1">
                    <mxGeometry x="-199" y="796" width="140" height="60" as="geometry"/>
                </mxCell>
                <mxCell id="8" value="" style="shape=flexArrow;endArrow=classic;startArrow=classic;html=1;fontSize=22;entryX=0.5;entryY=0;entryDx=0;entryDy=0;exitX=0.25;exitY=1;exitDx=0;exitDy=0;" parent="1" source="2" target="5" edge="1">
                    <mxGeometry width="100" height="100" relative="1" as="geometry">
                        <mxPoint x="-49" y="866" as="sourcePoint"/>
                        <mxPoint x="-129" y="816" as="targetPoint"/>
                    </mxGeometry>
                </mxCell>
                <mxCell id="9" value="" style="shape=flexArrow;endArrow=classic;startArrow=classic;html=1;fontSize=22;entryX=0.5;entryY=0;entryDx=0;entryDy=0;exitX=0.75;exitY=1;exitDx=0;exitDy=0;" parent="1" source="2" target="3" edge="1">
                    <mxGeometry width="100" height="100" relative="1" as="geometry">
                        <mxPoint x="71" y="826" as="sourcePoint"/>
                        <mxPoint x="171" y="726" as="targetPoint"/>
                    </mxGeometry>
                </mxCell>
                <mxCell id="10" value="tiny_uart_main.py" style="swimlane;fontStyle=0;childLayout=stackLayout;horizontal=1;startSize=26;fillColor=none;horizontalStack=0;resizeParent=1;resizeParentMax=0;resizeLast=0;collapsible=1;marginBottom=0;fontSize=15;" parent="1" vertex="1">
                    <mxGeometry x="-217" y="408" width="150" height="146" as="geometry"/>
                </mxCell>
                <mxCell id="11" value="主功能编写&#10;界面功能绑定函数" style="text;strokeColor=none;fillColor=none;align=left;verticalAlign=top;spacingLeft=4;spacingRight=4;overflow=hidden;rotatable=0;points=[[0,0.5],[1,0.5]];portConstraint=eastwest;fontSize=15;" parent="10" vertex="1">
                    <mxGeometry y="26" width="150" height="44" as="geometry"/>
                </mxCell>
                <mxCell id="12" value="收发处理串口数据" style="text;strokeColor=none;fillColor=none;align=left;verticalAlign=top;spacingLeft=4;spacingRight=4;overflow=hidden;rotatable=0;points=[[0,0.5],[1,0.5]];portConstraint=eastwest;fontSize=15;" parent="10" vertex="1">
                    <mxGeometry y="70" width="150" height="26" as="geometry"/>
                </mxCell>
                <mxCell id="13" value="多线程处理&#10;协同绘图线程" style="text;strokeColor=none;fillColor=none;align=left;verticalAlign=top;spacingLeft=4;spacingRight=4;overflow=hidden;rotatable=0;points=[[0,0.5],[1,0.5]];portConstraint=eastwest;fontSize=15;" parent="10" vertex="1">
                    <mxGeometry y="96" width="150" height="50" as="geometry"/>
                </mxCell>
                <mxCell id="14" value="serial_thread.py" style="swimlane;fontStyle=0;childLayout=stackLayout;horizontal=1;startSize=26;fillColor=none;horizontalStack=0;resizeParent=1;resizeParentMax=0;resizeLast=0;collapsible=1;marginBottom=0;fontSize=15;" parent="1" vertex="1">
                    <mxGeometry x="-376" y="638" width="140" height="141" as="geometry"/>
                </mxCell>
                <mxCell id="15" value="串口检测&#10;串口连接&#10;" style="text;strokeColor=none;fillColor=none;align=left;verticalAlign=top;spacingLeft=4;spacingRight=4;overflow=hidden;rotatable=0;points=[[0,0.5],[1,0.5]];portConstraint=eastwest;fontSize=15;" parent="14" vertex="1">
                    <mxGeometry y="26" width="140" height="44" as="geometry"/>
                </mxCell>
                <mxCell id="17" value="串口指令收发&#10;串口数据处理&#10;串口数据传递&#10;" style="text;strokeColor=none;fillColor=none;align=left;verticalAlign=top;spacingLeft=4;spacingRight=4;overflow=hidden;rotatable=0;points=[[0,0.5],[1,0.5]];portConstraint=eastwest;fontSize=15;" parent="14" vertex="1">
                    <mxGeometry y="70" width="140" height="71" as="geometry"/>
                </mxCell>
                <mxCell id="18" value="pyqtgraph_thread.py" style="swimlane;fontStyle=0;childLayout=stackLayout;horizontal=1;startSize=26;fillColor=none;horizontalStack=0;resizeParent=1;resizeParentMax=0;resizeLast=0;collapsible=1;marginBottom=0;fontSize=17;" parent="1" vertex="1">
                    <mxGeometry x="235" y="614" width="182" height="138" as="geometry"/>
                </mxCell>
                <mxCell id="19" value="创建绘图部件&#10;设置绘图属性" style="text;strokeColor=none;fillColor=none;align=left;verticalAlign=top;spacingLeft=4;spacingRight=4;overflow=hidden;rotatable=0;points=[[0,0.5],[1,0.5]];portConstraint=eastwest;fontSize=16;" parent="18" vertex="1">
                    <mxGeometry y="26" width="182" height="51" as="geometry"/>
                </mxCell>
                <mxCell id="20" value="数据采集和处理" style="text;strokeColor=none;fillColor=none;align=left;verticalAlign=top;spacingLeft=4;spacingRight=4;overflow=hidden;rotatable=0;points=[[0,0.5],[1,0.5]];portConstraint=eastwest;fontSize=16;" parent="18" vertex="1">
                    <mxGeometry y="77" width="182" height="32" as="geometry"/>
                </mxCell>
                <mxCell id="21" value="数据保存设置" style="text;strokeColor=none;fillColor=none;align=left;verticalAlign=top;spacingLeft=4;spacingRight=4;overflow=hidden;rotatable=0;points=[[0,0.5],[1,0.5]];portConstraint=eastwest;fontSize=16;" parent="18" vertex="1">
                    <mxGeometry y="109" width="182" height="29" as="geometry"/>
                </mxCell>
                <mxCell id="31" value="" style="shape=flexArrow;endArrow=classic;startArrow=classic;html=1;fontSize=15;entryX=0;entryY=0.5;entryDx=0;entryDy=0;exitX=1;exitY=0.5;exitDx=0;exitDy=0;" parent="1" source="5" target="3" edge="1">
                    <mxGeometry width="100" height="100" relative="1" as="geometry">
                        <mxPoint x="-29" y="926" as="sourcePoint"/>
                        <mxPoint x="71" y="826" as="targetPoint"/>
                    </mxGeometry>
                </mxCell>
                <mxCell id="46" value="" style="edgeStyle=segmentEdgeStyle;endArrow=classic;html=1;rounded=0;fontSize=15;entryX=0.529;entryY=1.007;entryDx=0;entryDy=0;entryPerimeter=0;exitX=0;exitY=0.5;exitDx=0;exitDy=0;" parent="1" source="5" target="17" edge="1">
                    <mxGeometry width="50" height="50" relative="1" as="geometry">
                        <mxPoint x="-351" y="851" as="sourcePoint"/>
                        <mxPoint x="-301" y="801" as="targetPoint"/>
                    </mxGeometry>
                </mxCell>
                <mxCell id="48" value="" style="edgeStyle=segmentEdgeStyle;endArrow=classic;html=1;rounded=0;fontSize=15;exitX=0;exitY=0.5;exitDx=0;exitDy=0;entryX=0.519;entryY=1.022;entryDx=0;entryDy=0;entryPerimeter=0;" parent="1" source="2" target="13" edge="1">
                    <mxGeometry width="50" height="50" relative="1" as="geometry">
                        <mxPoint x="-196" y="651" as="sourcePoint"/>
                        <mxPoint x="-163" y="589" as="targetPoint"/>
                    </mxGeometry>
                </mxCell>
                <mxCell id="49" value="" style="edgeStyle=segmentEdgeStyle;endArrow=classic;html=1;rounded=0;fontSize=15;exitX=1;exitY=0.5;exitDx=0;exitDy=0;entryX=0.469;entryY=1.098;entryDx=0;entryDy=0;entryPerimeter=0;" parent="1" source="3" target="21" edge="1">
                    <mxGeometry width="50" height="50" relative="1" as="geometry">
                        <mxPoint x="391.15" y="871.9" as="sourcePoint"/>
                        <mxPoint x="300.9999999999999" y="845.9999999999999" as="targetPoint"/>
                    </mxGeometry>
                </mxCell>
                <mxCell id="50" value="" style="shape=image;verticalLabelPosition=bottom;labelBackgroundColor=#ffffff;verticalAlign=top;aspect=fixed;imageAspect=0;image=data:image/png,iVBORw0KGgoAAAANSUhEUgAAAgAAAAIACAYAAAD0eNT6AAAAGXRFWHRTb2Z0d2FyZQBBZG9iZSBJbWFnZVJlYWR5ccllPAAALIlJREFUeNrs3X2sXGd9J/Bjx7HJm3NJoGlJbDm8tKrUpMlWW4K0UAeFrgjdbQii6grUGK368gdLAn8sSPtHQCoS+aNJQatq1apKWJWqWonG2a5AvJR4qVYsi3aTBpbdhaQEm9BASHJJ8LWv7Xvvzu96xhxP5t47M+d35s455/NBo2sH+3jmmXPO7/s853nOKQoAAAAAAAAAAAAAAAAAAAAAAAAAAAAAAAAAAAAAAAAAAAAAAAAAAAAAAAAAAAAAAAAAAAAAAAAAAAAAAAAAAAAAAAAAAAAAAAAAAAAAAAAAAAAAAAAAAAAAAAAAAAAAAAAAAAAAAPp2aILNHTt2bKH344be60D/BcD8erL/enTfvn2LmkMAmLTo39b78Zu910FFH6DRYeBI7/VQLwwc1hwCwEZFPwr9nb3Xod5rQYsAtEqMBjzQe328Fwae1BwCwGCI/+7e6y67A0An/HHv9ZGuXyLodADoD/Xfr8cP0MkRgfd0+dLAzg4X//t6Px5U/AE6Kc79D/ZrgRGAjhT+hX7hP2j/B6A4O1Hw7V27JNCpANAv/g8XZ5f1AcDAo73XzV0KAV27BKD4AzDKDf0a0RmdCQC93v/9ij8Am4WAfq3ohE5cAujP9n9wlv/mc889Vzz//PMOJ4BEr3nNa2bxz7y9C6sDWh8A+tf9v1PUONv/G9/4RvH973+/ePzxx9d/njhxwlEKUHMQuPrqq4tXvepVxS/90i8VF110UebmYx7AtW2fD9CFABDDOYeyt/vEE08UX/va19aLv4IPsL0iCLzpTW/KDAMP9ALAewSA5hb/A/3ef5oo+p///OfXh/gBmC9R/CMIvPGNb8wIAte2+bbBbQ8Aab3/6PEfPnx4fYgfgPkPAr/+67++HgaMAnQsAPSv/afMwnvooYeKL3/5y44ogIaJuQK//du/XVxxxRXT/PVWzwVo8zLA26puIK7t/9Ef/ZHiD9BQMXp77733rv+cwkJGLREAZu83q/zlGOr/6Ec/asgfoOGiM/cnf/In63O4Zl1LBIDtcbBK8Y+dxex+gPb4q7/6q2lCwMG2tkcrA8CxY8fijn9TrfuPon///fcr/gAtDQGxfHsCC/2aIgA0xIFp/2L0/C3xA2h3CJjwPH+gje3Q1gAwVVqL9f2u+QO022Ckt+6aIgA0RKTBz33ucxoCoAOis9f1FV4CQF8MCQHQHTHq2+X5XgJAPwlOuUYUgIaK4v93f/d3AkCXudEPgPO/ANDBBDjhkhAA1AABoOli6N+af4DuEgA6HAAAUAcEgI556qmn7P0AHRbLwLs4EmwEwAgAQOd18SZwVgEAQAcJAAB0XhcvBwsAAHTeyZMnBQAAQAAAAAQAAEAAAAAEAABAAAAABAAAQAAAAAQAAEAAAABqtEsTbL+LX3tjsftn9hcXvnJfsXPPxRoEaKXV5aXi9DPHilM/PFosPf6IBhEAuikK/d5feUtx2T+5RdEHuqPX4RmEgRf/1xeLF/7nF9Z/jQDQCbt/Zl9x5T//1+s/AbraCbr8Df+yuOg1NxbPfu7Pi1M/PKZRZv0daILZF/+rfuvfKv4AzokCQJcS7yt/872G/AGcGwWALtn7K7cUu/a+QkMADIlzY8yLQgBoZcKNCX9FseY1kxfQNCZFzzh0aYLZiKV+duxZEgLaa4cmaHFHKc6VP/nf/01jCADtcaEJLiDcsWW423X5lZphVoFLE8zG7lcKAABbhbs91/yCZhAAAAABAAAQAAAAAQAAmIBVADO0HXOXLZgCQAAQOmgR4Q4QAJpSitcaUI53KCvCHcIdAgAdrCrKSnurirIi3IEAAMIdwh0CAADC3Zx8GN/njFgGCAACAAAgAAAAAgDTc1ULgHliEqAQ0FrmRQMIAAhcCHeAAKAagcMJ360AgD0bXU5AAACEN+EOBAAA4Q7fR+tYBggAAgAAIAAAAK1kDsCMrBXzd2nL3Cegy1ZWVoqlpaXi+PHjxeLiogBAt0IJ7STcwUudPn16vdhH0T958uT6q/z/CQCAcIdw17KCHz+7WOQFgHk5I6+1+LS8w2kJhLvt/XzRox8U+/i1gi8AMJOjVp9TuIPZKhf8+BnX9BEAAOGOloW7crGP4q/gCwAAtCXcrY0u+PETAQCAllntFf4TK2vF8y8uFd/97ncVfAEAgDYX/BNn1oqTvZ/LK2e7/idOnlH8BYB2mccbAXWB6WswH86s/rTgn1r9acFHAIDaghfCHdtb8OPnmVVHowAAINy1zqmVtVIPvyhOK/gCAADtE0P4J0s9fPVeAGDD7sra6CU3brICNEAU+ZP9Yr+s4AsAJAUD2km4oyUFP3r5CACAcEfLwt36krx+sR9cy0cAAKBl4W6jNfjaVgAAoEUsyUMAAFDwQQAAaANL8hAAADpS8MvX8NtU8GUXAQCAvvJwviV5CACwiZUXni0u2HulhkDBBwGALnn+Cw8Ue675heKy1/+GxmCulZfknVjxlDwEgBbyQODx5dxk5YX//jfFqWeOFS9/yx3Fzj0Xa1YUfBAAmP+wlOPkE48WP3rh2fUQcOErr9G0LQl3TTK8JM9T8hAAYEZOP3Os+NGn7y2u+I0/KPZc8/MapCXhbq4Lfun6fWcKvmdfCAAwj1aXl9ZDwOVv+q3i0hvfrEFIszw0Ya+zHXy38BUA6HLfZ/79+Mv/qTj9o2PrQWDnnos0CAo+AgB0xdI3v1KcfuZ765cELBVsp8zB6HKxtyQPAQAaLuYFPPOXHy2ufMcHTA5soSplWsFv7nfHZHZqAroq5gU885d/uD4iQEf3gV61OX56rfjRydXi2E9Wisd/fKZ46vhK8Vzv94o/RgCg5Ra/8Mni1FPfKhbecofGaLmYoV++j741+AgAzMBa3ixZy23SDeYFxCUBkwPbVfA7uSQPBIC2Zgknsa0sf+9bE/+ds/MC/rC44m1/sH3zAoS7at97r9CfWikUfBAAYDLxEKFn//reYu+b3llc/ItvEO4aUPAbsyRPuEMAgPm2unyiWPzCf1y/JHB5LwgwPwbX7Ru5Bl+4004CQEf36aJ5y1u63l85/uiXijM/+l7x8rf9gXkB21jwLckDAYBtCC1dF3MJ4pLA5be062FC8xjuojdf7t0r+CAAwLaKSwHPRQh4yx3Fy179y8JdYsEv9/AtyWtvuEMAgMaKeQHP/5f/UCy85XeKi7ZjcmALWIPfnXDX5fcvAEBLnXzi7wWACQq+NfggAEDjxMS/Xa/cV1z4imvWHxoUcwB2X/3zGmYD1uCDAMAozoWNET38uA+Amf9bF3yPxQUBACFg+yXNfrr4F29S/Edo9Bp8QABAwNrKqae+bai/KF+/n4Mn47mLHggAOv/U7fijf1tc/Mtv7tQowPlr8OfwUbjuDtdew+HOdy0ACAHUISbzxVr+E//nK+tL+0YWw95/P/73Xyou+9W3tbrgrxd6S/IQ7gQAaLv1yX1vfGexo9ez39MLAc/99X0b/tmlR/+2uOSX37z+Z9vgzGq/0K8q+C4mgABAh0Thv/iGN5/7fVzjj9epp7616SjApQ0dBRgUfEvyRnQ4NQGs26kJaPUO3uvBX3H7+88r/gOXvn7z4h6jAGsbXCaYN9GjX1xeLX54YqX47otniid7rx/0fv3CqVXFHzACQHfEzXt27Lm4uPyW31m/7j9Kk0cBzl+Dv2pJHiAAQLjyX/27sf5cjAI899ff2nQUYB7mAgyK/bKCDwgADRMn7DVrqefNvI4CzNUafEAAoOkhRCEZOQrQK+7PPbj5KMCl//TW2v799SV553r3Z4u+cAcIAG0aAGjYe+5KSdl99es2HQWopeBnr8EX7tpLuEMAYDtCS1dc8qtvK05tMApw6RvfWakt5nENvpLSpANxzedFAIBZjgLE7yMYxP83TcGf5zX4TrEtHjDQ8UAAgMks3Pr7xYn/+5X1tf8Xrk8OHK/wD67dn1p10x0UUAQAaF7Pac9F6w8BGrfgW4MPCADQYtbgAwIAdKjgW4MPCADQUoMlecurhYIPCADUQWGZp4KfugYfQABg0/pvfevMxU31Tqysniv2Lyn4brICCADQfKcnXYO/SSgTDRpOuAMBgPYqL8mLX2euwTde03DCHQgAtLPgL1mSh3Dnu0EAoJ3KxT6Kv4IPIADQ8oJvSR6AAEALRW9+qb8kbzC0D4AAQIsLvjX4wDxZ6+Ay7V2+SOpSXpI3cg0+gNohANCugu+xuAACAGez5fr/2uTUSnFusl707l3CBxAAaKFza/DPWIPfdjvcRQ8EALqrXOytwe8W82iEu23c+XxJAgDbWfAtyQPhblven69IAKBe55bknbEGH0AAoBMF3xp8AASAljq3JO+MJXkACAAKPgAIAM1lSR4AAkADVK3Py6Un5MVLwQdAAGhIBJhk+Y0lefPNjXIAAYAUCn7D4pyblQh3IAAwKUvyQLhjwy9AGwgA7bGyslL8ZPlMcebEioIPgADQVqdPny6OHz9eLC0trf+M37/iny0Vu1++qnEAEADaXPABQABomZMnT54r9vEzhvgBQABQ8AFAAGiacrGPnwAgACj4U1kruvWcayupAQSAufbNb35zNv9QrG3t0PrWDT+pm6wId4AAQAe5yYdwh3A3zf6FAAAIdwh3CAAAtCncCZIzs1MTAIAAAAAIAACAAAAAtIJJgDMyfCMgc2oBEAA6GghoJ+EOEAAYqvoVyr51uMIdwh0IAMIDbaoqyopwhzYWAEC4Q7gDAQBAuIM6WAYIAAIAACAAAACtZA7AjAzfCKjtTH0CEADoaOBBuAMEAMwGRrhDuEMAEAKY5KzktARdCXfOkgIACE7CHSAAAMIdnQh39gkBAADhjvq4DwAACAAAQBe4BDBD5QExU58AEAA6HgZoF+EOEABAuEO4AwEAQLgDAaBjZ4617VkW40YrAAgAHQ0etJNwBwgAINwh3IEAACDc+exsyo2AAEAAoLZQqwkAmCMuAQgB28IVTgABAGEI4Q4QAADhjq6GO/uPAACAcIcA0IYjZ83ylpl3VwxGAwgAdDN0IdwBAgAg3AFnuQ8AAMKdAAAAdIFLALMKtcVkM2hd4QRAAOhoYKCdhDtAAADhDuEOBAAA4U4bMhsmAQKAEQDqjbYNybZusgIgACCo0CLCHSAAgHCHcIcAAIBwR4eYBAgARgCoLZwXlreMy0AmgABAR8MSwh0gAADCHcIdAgAAbQ13QuLsmAQIAAIA9cVjuRaA+eESgBDAONxkBRAAQHhDuAMBgPFryCTnJM0Fwp3vAwFAWKBFHU5NAAgAINwh3IEAACDcwUxYBggAAgAAIAAAAK1kDsCsxNKWNi9vsZYaQACgowEH4Q4QABiqj5oA4Q7hDgFACGCTc5ImgO6GO4FTAEBQQrgDBIDGW/3xDzUCwp0mEO62sOJcOTOWAc7Imae/oxGAVoe7jJdzpQDQOqe/9VWNAOBcKQB0zeriD4sz3/2GhgDYQJwj41yJANA6S5//c40A4BwpAHTNyg++Uxz/z5/46V0B2353QIAxHf+bT6yfI5kdqwBm7NRjX1r/ecm/+Dc//Y9CQHu50QqMVfxP/f2XNIQA0I0QEMsCL+6FgJ2X/8zkNUUTNodwJ9yxoTgPxqio+VECQKfEDv/Cv//9Yvf1by4u/IVfLS646tqxw4CS0uKaogmEuw4U/RjqP/X//se5EdF58OpXv1oAYPajAfN0EAB00aWXXtq5z9z5SYBXXXWVPR+g4y655BIBoGu6OOwDgFrQ+QBw3XXX2fMBOuz666/v5Ofe6Yu/3t4P0GE33XSTANBFMexjHgBAd73hDW8QALrqXe96l0YA6KAYBe5qJ7CtAeDJSdNfF2eAAugAjtUBfLKNn10AKM4u/zAKANC93v+YE8FbGQBae+Oxo0ePTnybrve+973FP/zDPzgqADrg/vvvH2v4f//+/a2slW2eA3Bk0r/wgQ98wBEB0AG/93u/N+61/yNtbYM2B4CHJv0LsSJACABot5j3ddttt9VWSwSA7Xd4mr90yy23rL8AaJ8pOnqH29oWrQ0A+/fvf3LaLy52DiEAoH3F/5577plk1dfhfi0RABro49P+xQgBVgYAdLb4V6ohTdD6x48fPXr04d6Pg9P+/a985SvFvffeWxw/ftwRBNBAcb0/Jv1N6Eiv93+zANDsAHBD78cjVbbxgx/8oLjvvvuKxx57zJEE0BAxyz9Gc6d86Nu1bR7+70QA6IeAD/d+3F11OzEa8Kd/+qfrgQCA+RTD/NHrj9eUd3n9SK/4f7jt7bSjKztE1UsBZV/84heLw4cPu2kQwJz1+GMCd4XCH1o/9N/FALBQnL0UcCBrmxEAYlQgXsIAwPYU/Rjij7X9CU/1e7L3urEXABYFgPaFgJgPECMBC9nbjkmCEQKeeOKJc782cRAg1+B6fszqT36cexT9m3vF/9GutOWOru08dYYAABopev5v71Lx72QA6IeAhX4IuMF+D9Bpj/Z7/otd++A7uvyt94LAfb0fd9n/ATrpj3uF//1d/fA7uv7t9y8JRBA46FgA6IQjvdf7uzbkLwBsHAQO9X7cIQgAtLrwf7xX+A9rCgFgoxGBCALxrMgDWgSg0Z4szj4Y7pNd7/ELAJOFgQgAN/Rfl/deMUqwvnpgxw5NBzAP1tbWBr+MiXwP9F4/Ls5O7nu07bfzFQBqcOzYsSj+B3uvXyuFAADm36P913/tvY7s27dPCBAAxir6MfR/h4IP0KpA8Mne67AwIAAMF/5DhQmAAF1wJMJALwg8IAB0t+jHtfy4B8CdhbsCAnRNzBf4eO/1x70wsNjFBuhcAFD4ARAEOhYA+kP99yn8AIwIAu/v0qWBTgSAXuGPCX33Fyb2AbC5I/0g0Pp7BuzsQPH/cO/HI4o/AGM4GDWjXzuMADS08B/o/XhQ4QdgSjEK8Pa2Lh1s5QhAr/jfptcPQEU39EcDbhMAmlH8P9zv+ZvoB0BVUUsebOMlgVZdAuh9QTHR75D9FYAaPLBv3773CADzVfgjoT1cVBzy37lzZ7Fnz57iwgsvLHbt2lVccMEFdneABlpZWSnOnDlTLC8vr78SxbyAm9twz4DGB4CM4h9F/9JLLy0uuugiRw1Ay6yurhYnT54sjh8/nhUGWhECGh0Aqhb/6OkvLCysBwAA2i8CwOLiYnH69OnKIaAXAG5scls0fRLgfdMW/7179xZXXXWV4g/QIXHOj3N/1ICKbujPOzMCsA29/yj+d02ceHbuXO/1X3zxxY4EgA6LUYBnnnlm/RJBBfEMgfcLALMr/rEm88Fp/m4kvxj6B4CkEBA3CzosANRf/A8UZ2/yM/E6/yuuuGKinv+3v/3tSu/1mmuuOW9i4YkTJ4rvfe97lbb5ute97rzfP/fcc8Wzzz479fbi/cX7zNzmlVdeud7WZfG54/NnbrMJ30/Vbdbx/YzaZhO+n4xtZn8/szom6/h+unpM1hQCYjLgjU27Y+CuBga2+6cp/jHLf9ziHzvcJz7xiUoHR7j++uuL3/3d313/9Ve/+tXi05/+dOVtvv71ry/e/e53n9vmX/zFX1Ru0He84x3FwYMH138d24vtVhWfOz5/iLasemKIk8KHPvSh9RNOtGFss+qJIbb5kY98ZP1nnLQ/9rGPVf5+4gT2wQ9+8NzJ8M/+7M/m8juP7zu+9xD75ZEjR+byO49tDk7g99xzT8p3PtiPMr/z973vfevbjvcX77Oq8rnjscceW9+PqirvR5/97GeLz3zmM5W3GduL7YZ4j/Feq34/sc3yflT1O4/vOtpyOFSVxahwBJoIAVNa6Nemm5tUTBs1CbDX+49r/gcn/pA7d0404SPjpD1IrwMZxb+8zfiZUQjK24wDLaP4D3pBgyJYtRAM3uOgVxXvsepJYbh3EdvM+H7K7ytrm+XvJOv7eeqpp0b+uopyiMj6zh9//PGRbVtlm4M2jP0p6zsfFL6M7Q2K/qANs76f+NyD43JpaSllm3EOyvrMo85rGe8zPvOnPvWpLf/cYDl4lVzdr1ECQA3FPxLW3VNFs4WF9RAw7sE8OEgyUvzgZJh1kJS3meXqq69OPdGE1772tes/yyfwqiKhZ55kw6B3mXVCHBWCqhoeZu2SzP18VM89+7se7KOZIW1wLGW25zjD4pNuc3BuygzmN9+c06Ee97weHcVxa8UG7u7XKgEg2X3FFEP/8WW+7GUvm6q3VdVgaKzqsNhADI9lB4C6tjk4uVa5FjpcBAeFMKMnOFxYs8JP5ol1OPg0SR3tkFWwB/tP7KdZ4Wqwn8f2sm4oNthmtGXWNgefPatY1xEAyufhwTk0a1RlnHpRcRRgoV+rBIDE3v+BYsp7/MeBM0miyyrWseMODtqsbcYBVsc26yyCWdssn/yzRgAye4DUL6sIlvefrHBV7l1m7VflYycrUJVH5LIK9mCb5c5E5jazQsDDDz881p+75JJLqv5Th/o1SwBIcve0f3GS3n/m8P9gp63jkkJsL2ubgxNLxmzbUSeWrG2WT4BZ26wjVNTR8x1coulisa67HbK+r/JIV9Y2yyNyWdssHztZxbq8miBzm4NzXNY2Y3vjnDviGTAJ++/dTThO5z4A9K+nTNX7j57/JF9k1vB/DAMODtisa+B1DNWXD66solo+WWVus3zyzyrW5W1mvdc6Cl8dN62qI6jUPbqS1Q7l4yfrEkA5kGdesx9st455AHVcBiiPfFY1GOWM95n1PY17jk/Y1w41YS5AE0YApp5VOemOmBUAyhNXsrZZPlizAkD5kkJWUClfq88apSgXrMzwU0eRKoeKrPkPdas7DGTJLIJ1jCoM9vfM/WqwD8U2s4rg4NLCqPsNZISqrGBRvsx50003pW9zq9oRT4TdrtolAPy093/ntH9/kuH/2DGyepaD4f/MYfXBOv3MIljHsHod1//rKlB1BJVy6Mzabh2Fr25ZxSpzFKnuEDgo1pmFtRzM67i0kHV9vVxYswJAefVU1vsc9zJA0ijAnfM+CjDvIwCRoKZqwEmH/+d58l+cTAcnlMzr/3WNKmSfvMu9tKyRivLJNLOnbmJhbgAoh/I6lq5lfmflwJs1slDH3II65gGUz0vlkcWsYBH7U9Z7HfemVxVXAxT92jXXowBzGwCq9v4n3QEzA0B2D7A8/JVVrOJkUj5JZ4x+RJuXT1LzPLGujrX1da3XL89UzzqxlrfTlG3W1cZZxbqOsFI+h9SxzfJ8pcywkrV+v/xey6OgWdvcqhOZsCJgrkcB5nkEYOref5hk+H+4cE978i/ftnRwYqlyIoy/Gzv9W9/61vOKQdWTYLzHwS1Bsw6ueE+xzfLnrTohaPD5y8n/uuuuS/n8g9vgDn5f9SQ4+P7Lhttjms8f77P8eWNfyPj85f09fp3x+cv7afSqb7311pTPP9ymVT9/7E/lzxv/RsbnH27T2Herfv7yNgf7WNXPP3ys33777SmfvzySEvtCxucvh7PBeStj/x9XwmWAuR4FmNuHAfVS03d6Pw5MlWp6ye1Vr3pVAQBVPP3008WZM2eqbOLJffv2XWsEYPzif2ja4j9IjgBQ1STPkdnAgX5NEwDGVOkmCgmTNwBg/XJyxecDVK5pdZm7xwFX7f3H2s14tONmYhZszAQdNRkkrjnVceOVSecDlJ+Lvdn7HVdcN4trneX3EDOhY7tVJuvF9bTytd8mbjcmgFZ9ct9G2636mN26thvXwYevBWdsN65ZD8+nydju8FyQENusOnl31HbjUblVVsUMrt03abvRDsPXxuvabhxrmcuupzkXx/l13NUKgxVlx48frzwKsG/fvgcEgBqT0laT/6KIxjOmN9r56nz62KQn6Jjws9X7nfTkPDgYB9utKtor1qk3ebsZz1qf1XYjDGZudzBxK3O7gxNs9nY/+MEPnrfdeMR2Hdv9zGc+U3m7UeDq2u773ve+826M1bTtZj3GvMp3Pggo0SkaZwJ4jCpXDACD2jZXAWCuLgFU7f2HrZZtxAMhtit5TnsAZb3f8nKyrGWPgwOpju3OIpjVdbe+urab/ez1Jm0389HSZV//+tfP/Tpz9K+u7ZbbIfO+E3Vtt3xOGF5+vJ1i3xw35MSo8lYjy+OOAggAG7uzyl8eZ/i/rgJVxwhA5vst36I3s6AO3/Uss/CVhw7ruK1wdlFp4mN765ZZSMphoq4bLmUWp6WlpQ2PvyrKN/Kp63a+w/f0yAxuWbf1zTDJnQEvu+yyba9xrQ0AvWR0sPfjhirb2Gr4P3bwzEIyiwBQxx36hk8imdut6/a/WcGizt5H9o2V6i52swgvda7IqWvbWYVv+FjI+h6Hz2FZt4oePtfU8bTAkHVDnyyTPCAoYTLgDf1aJwAMqTxLcqvh/6wH88yi+MfJLXPYu3ydKw7G7McJZweL4buzZb3fugrdcLDICkJ1F9FZBKN5H10YPs7quI1xZrAYPsYy75RZx22CQ3kkc/gGR9ttklHWpEs5c7MiYC4CQD8RVUpFbRr+HxwcmY8SLp8sM4PF8K1/67r9b+YtkDc7+c9bsGhir7+uHvWsQktWsBgu1JlPHqyrUJeD6/Dd/TJD1jwFgG24DHBwXkYB5mUEoHIi2mr4fzuXnUxarOse/s/qnQ5f18x8ctvwiSdrBCDzJDyL7db5qN4m9vpnEWAyv8u6HmY0fDzU8aTAUNflhXi/8/TgrHFHhy+44IJiz549rRkF2PYAkNH7HyeZNW3yX5w46goATQsWmfM26ip6ddw7oi2yLmEMjwJlfZfDx0NmYapruH74WKtru5mP4R0+judpLsAk9SHpRnNzMQowDyMAd1TdQAz9RzJrUwDIHKavawJgXcP0wyfgOh/Xm9XOWT2luorndqpr8ltdYS7avK55AFmjC3X11IfPDfHd1RW0qj4sLNMklwHiPccl53mofY0OAL0EdKD341DV7Ww1+a8pw//lZ15n9aZHFf+6rtPXtQIgawRgnoYc5/E913m5oWltk3V5oa6e+nAoju1mFdNRw/V1bDdkPTY4wySTxJNG/A71a2BnRwBSroNsteM3ZelfPD41uydT1zDbqEd9ZpyAynMgsnvBoyZLZfRuohANnySz3vNwj7F8i+jsYp/V0xsunlm90+G2yFoDP6o9s46b4TbNKtSjClDWcP3w+6v6WN+NRkMG256XSwGTdIy26nTOugZOa9seB9xPPt+pup0Y/r/qqqu2/GKr3uu9bnHwDq8jr/qeh7dZHhGp0lsffvZ5+T1n3Et+1HuOtqgS5Mq30x0Oh1WWhw6WNI06QTbxPVd91sJG7zl6f1VWtWwUZus8Tqq+582Ok6a956r73FZBYjDnKXP57KThctLVFDEKk1RTrt23b9+TXQsA9xcJw/8LCwue/gfATC0vLxfPPPNMxqYe6AWA93QmAGT1/sPP/dzPbTkBEACyPf3008WZM2caOwqwXXMAUu6HPM7sfwCoQ+Lo87Y8I2DmIwC93v9Cv/e/UHVbmw3/x3XueOxk1Ws08Uje4WtD8RjSqte641rYhz70oZdc949Hp1ZdmhYTo+JRpGWDx7JWnRAZ1/HiEZplcW0w2mRe2zra+M4773xJW8fjhTNvXkRzxfH47ne/+7z977Of/WzlR+LGPhf79fBkxXvuuafyvhdzLWLb5evqcXx/7GMfq3wsjjrO45xa9dHOGz2CN+s4r6ut4/3G+x6ew7C6ulp8//vfz9gFF/ujAIttHwG4K6P4D3amUQbPYs+YoDE8KSUOgqo76qAADS/liZNNxrr0UTt7nMwyVkOMmqSTUfxHbTs+R0Zbx+cebusILYo/5eNxeF/LOBZj34tjb5xjdFLx/oYn5mVNTIu2GH6PGRP04r2NOl9kbDva+lOf+lQtbT3o5LykgO7cmbUiYKFfG2dqpgGg3/tPGeqI2zFuNPyfedOf6667rpZtj3rcZta9/0ctjcp8rPDwwZW1uqLOB+qMOhHBLIwqQHWt2c+8PfLXv/71836fdROjUXc5zXxQ0nBHJ+tZCRudQzMvA/RrZGtHANJ6/5ulrqyn/kUhHS6mWYV0eKeMgyKrRzo8vFbnXQUzi3RdTwAcdYLR+2fYqJvrZBi1H9e17eHbaGeGi8yHDtX5cKDhc3TWtuMcPer8H3PRtnoQ3byOAswsAGT2/sNGD/+Z5JaOWxled5zZ263r/vxh+MYrmUW6rrv0jbqpS123FjYCwLjFtK5t1/XEwcxCXee2h0c763zyYLznrO9yow5g0lMCZz4KMMsRgNuKxGv/ce1lki9omn9jeGfPGlkYte2sADDqQMoKRKPuQpf1vkcd/FnhoulPvWN7QkDmUwGHw2zmsyPqeuBQhOS6htNHdaayeuqjbv1+00031RoAokO6UU2aYhTgtjYGgLRbHm52/SyrSMeOPvzvZIWLUTt6XZcWMov0qJNWVi991EmrzhEAlwDYqlBnPmugrsf3hrqeN7BRbzrL8DmvCZcYNroMEMU/8cFGM7s98EwCwLFjxw71fhzI2t5Gw/9xUq9r+H/U4yyzAkDmtkfNLahr25m99FHhImvbo3pyLgGw0Ql+q/CYEQDq3HbWMxJGBeVRk5ezinT5YWjZ4SJz2xt1Mvfu3Zu1Gx7o18x2BIC1tbW7e68i47XZUEsTJv+NGqLP6qGPOjgz5xbUue26Lltk9+Rot+HedNblo1GjWVmXAUYdh1nFbtT8oaxt1/m+R52v67zEEGJV2u7du4ukWjeTUYDaA8DRo0dTe/+bDbNkFelRDx1pwhD9qG3X9YjezB56nGSHv9fMHvqopYswytLSUuNGAJoaLkaNfGZte9RSw1GXdTMDRkh8SuCBfu1s/AhAapLZ6Asctf5z2u3XWaRHPf+6ziH6OsNF1vseFS6yAkCd26Z9hvfpzMl64+ybWeEi67HDo84hmTP2h8PLRuffaYy6r8qo8292AEiaDJheO2ceAHoJ5rbs3v9GjRvPx666ww9uBzpqO1V3+MG2Rw0pZsw2jlGLUQdOxsEUJ5NRw2cZJ8do11tvvXXkf8/4Pm+//faRn8dlAUbtL29961vH2vcnNeoYj3PBqH0/K0iMunXtpDYq9u9617sqXx6J9zbqxkVxnswIR6PafKPz5DTtspHEJYEH+jW0NrU+C6D35h+ONs/a3ite8YrMmZYAkCqeDviP//iPWZs7sn///pvreq+1jQD0iv/BzOKfvMwCANLt2rUrs1Yd7NfSZgWAYkbX/gFgniROBkyvpbUHgOzevwAAQFNEvYqRgHkfBahrBCA1sRj+B8AowJwHgF5SOZDd+49H/wJAU8TKtEQH+7V17kcA0pNK3F0JAJoiLgEkPSa4ttqaGgD6CeVQ9ptMbkQAqF1y5/VQ9ihA9ghALdcpVldX7UkANG4UYJ5rbFoAqKv3H1ZWVuxJADRKDZ3X1FGAzBGA2tYqDj+gAwDm3cmTJ+vYbFqtTbkVcC+RLPR+PF9nQ/7sz/6suQAANELyLYGHvXz//v2L8zICcFfdjRlPjTIXAIAmyHpaap01t/IIQL/3/53ea6HuBo37AcQDgRIftwgA6cX/+PHjdf4T0fu/tuooQEYlvWsWxT8sLy+vD6m8+OKLRgMAmCtR9KNG1Vz8i37NrTwKUGkEYJa9/1FiToDRAAC2W3RQZ6zyKEDVRYoz6/2Pcvr0aXsdAF00GAX48LQbqNp9vsN3AADbolINnjoAHD169FDvxwHtDwDb4kC/Fs98BOBubQ8A22rqWjxVAND7B4BmjwJMOwKg9w8ADR4FmDgA6P0DQPNHAaYZAbhTWwPAXJm4Nk90I6BewjjY+/GwdobJrK2tuXvlqBPQjh1u5gV5bt6/f/+Rcf/wpDcCcu0fJhBFf2VlRfHf6kS0a1dxwQUXaAioJmr02AFg7BEAvX+YTBT+eCQo448GxO294ydQ/yjAJGNvev8wpij8iv9k4jLJqVOn1n8ClUYBxjJWAOj3/g9qVxiv5x8vphMhAJjawX7NThsBcM9/mKD3jzaEbTRWzd7yYlsvSRwozj7yFxij96945dizZ49GgOnFo4KfrDoC4No/TBAA0JYwB7as3Tv0/iFHLPU7ffq0hkgSqwF2796tIaCmUYCtRgD0/mGCAEAeN0+CekcBduj9Q47l5WWNkCxuDhQ3CQLyRwE2GwFwz38Yk+vV2hXm1J0TjQD0ev8L/d7/graDrbmBTX3cJhgqWeyPAiyOOwJwl+IP44nr1Iq/UQCYUwv9mr71CIDeP0wmZv6brFaveEaApwZC7ijATr1/mJ6Z6rOhjSF/FGBUADD5DxSmuRKXAVxmgUru3DQAHD169JDeP0xWmBC2oAmjAP0av+EIgN4/6JUKW9CBUYAdpd7/gcKNf2BsJv/NnsmAUNm5GwOVj6TbtAuMx+Q/owDQUOdqfTkA/Jp2AYVonrnnAlT2ay8JAMvLyzdoFxAAmhACgOmUa/25AHDy5MkDmgYUIOEL2qtc688FgDNnzqy/gM0Zgtb+0ETDdX7nUDLQQrCFHTt2aASgib3/835/XgCI55nH0iZgY5ahba94OiAwmajtUeM3DABhaWnJEBtsYffu3UYCtkE8FtijgWEyUdOjtr8kTA9+0TuZLfb+0EJcH3jxxReLvXv3ajXYQBT/CAFxYAnMs2HkBaYTNX1w7T9q/UsCQO8kdqTo3yAghgpeeOGF4rLLLtPLgS2CgGMEmNeefxT/8qX9fq0/G6pLf/ah8l+Mv7C4uGhOAAA0zCY1/KFRAeBw77VY/lOx3jlGAn7yk59Y+wwAcy5qddTsqN0j6vZiv9afHwBuvPHGxZ07dz4waoMxc/D5559f32D8WhgAgPkp+lGbo0ZHrR6e7X+u4PdqfNT6we93DW3kIzt27DgUkwE3GlIYDCfEhJxYjjNYkhO/N0kHAOot9oNO+ODGPuN0ymPyX9T48/7b8B965JFHDvZ+PKyZAaA1bu71/o+cNyIw/Cf6f+A92goAWuE9w8V/ZADoh4AH+iFgUbsBQCMt9ov/A6P+z00XMD/yyCPx2MD7eq+D2hEAGiN6/O/vFf9HN/oDY93BpBcEDvV+3Nl73aBNAWBuRcH/+Ea9/okDwNCIwB39EQFhAADmo+hHj/+Tm/X4KwWAEYEggsCCMAAAMy/6i6Mm9wEAAAAAAAAAAAAAAAAAAAAAAAAAAAAAAAAAAAAAAAAAAAAAAAAAAAAAAAAAAAAAAAAAAAAAAAAAAAAAAAAAAAAAAAAAAAAAAAAAAAAAAAAAAAAAAAAAAAAAAAAAAAAAAAAAAAAAMLH/L8AAZRJb1VkLpwEAAAAASUVORK5CYII=;" parent="1" vertex="1">
                    <mxGeometry x="-122" y="-276" width="133" height="133" as="geometry"/>
                </mxCell>
                <mxCell id="51" value="" style="shape=image;verticalLabelPosition=bottom;labelBackgroundColor=#ffffff;verticalAlign=top;aspect=fixed;imageAspect=0;image=data:image/png,iVBORw0KGgoAAAANSUhEUgAAAgAAAAIACAYAAAD0eNT6AAAAIGNIUk0AAHomAACAhAAA+gAAAIDoAAB1MAAA6mAAADqYAAAXcJy6UTwAAAAEZ0FNQQAAsY58+1GTAAAAAXNSR0IArs4c6QAAAAZiS0dEAP8A/wD/oL2nkwAAAAlwSFlzAAAOxAAADsQBlSsOGwAAG8JJREFUeNrt3Q3IXud5H/A7sygvQ3Qvm+i0VSxiEZkogmmLUtTWIcqqULdWFqVxF6d2iEJkbFOb2DjBMcY4nmNs45g42MEudrCCFeJgB7tYJirWiAzOos4qcZkZSieGNsRQmVtE0Yoo77xdl88tT3UcfbzPec7He34/uLDr5n2e51zPx/mf+9znPqUAAAAAAAAAAAAAAAAAAAAAAAAAAAAAAAAAAAAAAAAAAAAAAAAAAAAAAAAAAAAAAAAAAAAAAAAAAAAAAAAAAAAAAAAAAAAAAAAAAAAAAAAAAAAAAAAAAAAAAAAAAAAAAAAAAAAAAAAAAAAAAAAAAAAAAAAAAAAAAAAAAAAAAAAAAAAAAAAAAAAAAAAAAAAr3Hu0oDProrZELUatjVrQEoC3LEWdiDpW66iWCABjljv6y6I+HrU1ar2WAFyQDAP7o16M2hd1WksEgDHYHHVt1NVRq7UDYCanovZE3R91XDsEgCHKYf17645/lXYAtCpHAZ4QBASAodkV9bAjfoC5Oxn1uajntWI2l2jBTPI8/6NRX4n6Be0AmLucQH1l1Jqol6Le1BIBoGs55P9C1A6tAOjcr0b9etQzpbmKAAGgs53/j6M2aQVAb/55aa6yEgIEgE4s1iN/O3+AYYSAjVHPFacDBIA5y8l+/1YbAAbjV6J+qTTrBiAAzMWuqH+vDQCDkyut/lnUEa24MH9PCy7Y2nr0D8Aw5W/0Gm0wAjCPD9avagPAYP1i1N+P+oFWGAFoSy7ve7U2AAze7tLcfA0BoBW5tr/lfQGGLxcKulUbBIA2LDr6BxjdKIC5AALAzHKlP2v8A4xrFGCnNggAs7pcCwD8dgsA07NVCwD8dgsA05IzSddrA8DorPX7LQDMYosWAIzWBi0QAJZrUQsARssIgACwbGu1AMBv+EpkcZtzWxjAa8gbWxyIejnqeNQbxX2vgeHucLM+HLW99H/bdPs4zRmd3MHvifpW1GE7fGAkjtV/Pl//mfOoPht1nf2NAMD5HYq6Puo1rQBG7nCtb0Y9GrVNS4bDHIBheSjqI3b+wApzpP623acVRgD4WddEPaENwAp2W9RPox63/zECQONGO39gIvaU5jQnAsDk7Y16TBuACXnCQY8AMHXHaxI2yx+Ymhz5PKYNAsBU5fmwU9oATNDpqC9pgwAwRbmgz7PaAEzY8/W3EAFgUp6tCRhgqvL059PaIABMzfe0AKB8RwsEgCnJI3+L/QA0v4XmQgkAk3Ei6qQ2ALx1QHRCGwSAKQUAAPwmCgATTLwANKyFIgAAAAIAACAAAAACAACwTO7HDNOxJmpD1Lpai/W/5zXYuRxrXpp6uDQ3qQIEAGCkFqIui/pU1Oa687+Q7/zxGgT+OGqfQAACADAOubO/NuqKetR/sc6MEOyMejhqb9SDUa9rLQgAwPCsj7o1aneL3+18nF21cjTg5qijWg0CADCM7/GXo24vzbD/vOwozSmFR6JuKxa0AgEA6E1O5Ptu3TF39ZtxU9S2qE9HHfEWwDi5DBDGa1PUTzrc+Z8t5xm8WkcFAAEA6Mj2qB+X5rx/X1ZHPSMEgAAAdLfzf6HugPu2IASAAADM34a6w10Y0GvK15LzEDZ6e0AAANq3qu5oFwf42lbX17bgbQIBAGjXvVFbBvz6NtfXCAgAQEty6P+mEbzOG4pTASAAAK0e/Y9h3Y58jQ94u0AAAGaX1/vvHNHr3VFfMyAAADO4pYxv1c5bvG0gAADLl3fzu3KEr/vq0txREBAAgGXI4fQxXlq3qlgcCAQAYNl+a8Sv/XJvHwgAwPJsGfFr3+ztAwEAuHh5/n/9iF9/zgFY622EYVqlBTDoo/9ZvqP7o/5D1MGo16KWSrOM8KVRH466ooOAsTXqeW8lCADAhVvu0fPhqOvrP9/pZNS+WndEfTHq1jK/OwsuehtBAADmv/N8JOrmerR/PqejvlqP0F8q8xmuX+NthGEyBwBWTgDYexE7/7O9HvXbUW/MYRtWextBAADm52hphv2Xlvn3r9XwAAgAwIjkzvvUjI+RIwiHtBIEAGAc8uh9X0uPdZd2ggAAjMOBFh/rldJMDgQEAGDgXm7xsfI0wmEtBQEAGL4jLT/eUS0FAQAYviUtAAQAAEAAAAAEAABAAAAAAQAAEAAAAAEAABAAAAABAAAQAACAIVulBTBZm6NuidoetVY7QAAAVr5dUY/7DYDpcgoApmennT8gAMC05E7/ATt/QACAadkStUEbAAEApsXOHxAAYIJOaQEgAMD0HIpa0gZAAIBpORG1VxsAAQCm57aoo9oAAgAwvVGAj0QdKE4HwGS5Fhim6XjUR6M2lmYp4DVn/f8+XpplggEBAFihjtQ623sFAFj5nAIAAAEAABAAAAABAAAQAAAAAQAAEAAAAAEAABAAAAABAADokqWAYdryXgDbotae9d8sAwwCALBCLUY9HrXT7wAIAMB0dv4vRW3RCpgucwBger5u5w8IADAtea7/am0ABACYlq3FqT9AAIDJWa0FgAAA03NUCwABAKbnsBAACAAwPUtRd2gDIADA9DwddZs2wLSZDQzTdF/UoajPR10WtUZLQAAApuFgrXd6MmqX9sDK5hQAAAgAAIAAAAAIAACAAAAACAAAgAAAAAgAAIAAAAAIAACAAAAAzJV7AcB0bY66JWp71FrtAAEAWPl2RT3uNwCmyykAmJ6ddv6AAADTkjv9B+z8AQEApmVL1AZtAAQAmBY7f0AAgAk6pQWAAADTcyhqSRsAAQCm5UTUXm0ABACYntuijmoDCADA9EYBPhp1WCtgulwLDNN0LOqDpVkG+Lei1pz1/7u0uFoABABgRTtQ62xPCgCw8jkFAAACAAAgAAAAAgAAIAAAAAIAACAAAAACAAAgAAAAAgAA0CVLAcO0bYzaFrX2rP+2WVtAAABWpsWox6N2+h0AAQCYhtVRL0Vt0QqYLnMAYHrutPMHBACYlhz6v04bAAEApuXS0pwCAAQAYELWaAEgAMD0HNMCQACA6TkUdVwbAAEApuV01F3aAAgAMEy5Gt/H5/TYT0Td0dF25Da45BAGyEJAMCw5Se/W0lyqN8/Z+l+Neq0+19Y5/hZkkPlx1GNR9xenH0AAAH5GXqL3TPm76/LP075ai7XOeCDqipZ/Z26IujLq96IOeqtBAABKWYi6O+qmnr6TJ2udcWpOz5OjGz+Meqg0pyBOeetBAICpWleP+rdOaJsz6GyP+lhxWSL0xiRA6E+eH391Yjv/MzZF/aSYIAgCAExM3oY3h8PXTrgHi7UHV/o4QPecAoB+dv7P+P69Ja90+G7UUtSz2gFGAGCl2mHn/66yJ1doAwgAsFKP/J8bwc7/O6WZqX+gNCsHdhkCdvqYQDcchUA3ctb7d0fynTtQK+UlijlJ8ZOlOVc/77sJZo9yrYB9PjJgBADGbmM9ul0Y4WvPEYCDUTdG/ZOo3456vjTn7OdhoYaAzT42IADAmOUktxz2X5zT4+fEuZMdbUvu9PdHfSLq1+YYBM70bI2PDwgAMFZP1RGAtuVtfT9UmuHykz1s1+EaBD5U/71t62vvnKYEAQBGJ2/o0/akttzZX193vK8MYBsziHywvqa2g8hlpbmHADAH0jXMR57D/nrLj5l378tz8CcGuL15t79n61H7ZS0+7gM1ZBzykQIjADCGYP1kaXfS3xP1qP/EgLf7jRpQ7mi5l4+WcU6gBAEAJubu0u4s9pujrinjuXveV6M+V9qbIJi9vNfHCgQAGLJc27+t89a5A/1MaRblGZs9pZmg2NZCQjmfYp2PFwgAMOSj/9Ut7fxzYt3eEfciLxP8WEshYKH2FhAAYHA2RO1q6bFyCP2JFdCTXFHwmtLO6YCra48BAQAG5fbSzpU1Xxv5kf875bbc18LjrKo9BgQAGNTR/9UtPE4uqnPHCuxPbtNBowAgAMBK84UWjv5zln9O+ju9QnuUpzXeaGEU4As+biAAwBCsbunoP4+Sj6zgPh0r7YxuZK8XfexAAIC+7Wxhh5TL+j4ygV7lioGvzfgY2esrfOxAAIC+fX7Gv88Z8jeX+d1id2iub2FbP+tjBwIA9Cnv9Ldtxsd4usznjnpDlev6Pz/jY1watcnHDwQA6EsbQ9EPTrBvd7QwCvApHz8QAKAvl8/49/vL7OfExygnO+6b8TF2+PiBAAB9WB+1xdH/sv3hjH+fNwmyJgAIANC53PnPcu1/3tr34IT7l8sEz7ouwFYfQxAAoGu/OePfP1umM/P/3eS27+35PQABALhos85C/74WztwDVwKAAACdm+X8cy77e0gL37r88XRP7wEIAMBFy9Xo1s7w9wfKyl3z/2JkDw72+D6AAAB0euT5J1r4th/1/F6AAABcsI0z/v0xLXzb4Z7fCxAAgM6OOl/XwrfNeing+7QQBADoyi/P+PcntPBtR2f8e3MAQACAzsyyANBSC0e9K8nJMtt6CKu0EAQA6MoaR/+tOt7TewECAHBRVs84AkB7FrQABAAAQACAQXLOGhAAYILWaYGegAAA4zTrLH7nrf9uL2YZFTmphSAAQFdOzfj3Vq/7/2ZdVEkAAAEAOjPrpXzWr2+vF9ZUAAEAOvMXM/79v9TCt23q+b0AAQDobARgsxa2FoYsrAQCAHTmtRn/fpsWvm37jH9/RAtBAICu5E5nlomAq40CvCXP/y/O8PenWwhjIAAAnY4C7NDCmXuQt1W2tDIIANCpQzP+/Se1cOYeHNJCEACga38y49/nKYBNE+5froWwtef3AAQA4KIdLM056Fn8wYT7d22ZbQXAHPrf72MIAgB0LRegmXUewK4yzXXw10btnvExjhSLAIEAAD35/ox/n+vg3zrBvt1SmishZvE9Hz8QAKAvz7fwGLsnNgqQ23rdQHoPAgCwLEfL7KcBchTg6xPq2d0tHP3n5X8WAAIBAHr1rRYe44oyjXUBLo26uoXH+XZx/T8IANCzp8vstwdOT5ZmctxKlTP+Hy2zzfxPeeXFXh87EACgbzkTfU8Lj7Mm6uEWdpBDlTv/NtY9yF67ARAIADAI3yjtDEnnqYAbVmB/ctLf7hZ7DQgAMAg5GbCtWek5IfDKFdSb7aW9SY77isl/IADAwNzf4mM9VdqZLNe3XO74udJc6TC0HoMAALTicGlnLkDKeQA5KXDMVwZsi/pBmf2SvzNy4t8rPmYgAMAQ3VXauSLgTAh4pjTzAsZme935t3VVw1LtLSAAwCAdi3qwxcdbqCHgiyPqQb7WNof909dKM88CEABgsO4r7U9UeyDqhajFAW/36rrjf6C0N+xf6o7/Hh8rEABg6HKhms+U9leqy/kA/7kM85RAvrZXo3bO4bFvLO2dVgEEAJirw3UkoG15I51naq0fwHZuqK8lRyc2zuHxc+h/v48TtG+VFsDc5KS1nAy3dQ6PfUU92n6iNJfGHet42zJ8fL405/sX5vQcGaLu8DECAQDGJk8B/F7UT0qzzO88vr9nVtjLRYj+MOrAnLcpj/Jvido159+PHPLP0yinfYxAAIAxOl5DwA/meKS8qo4IZOVtcnO1vO/Vf29jHsKG+tiXl2Y0Y96/G7nT/3Sx4h8IADByB+vR7Hc7+M5tqvXl0tyk6FDUj0ozk/5M/bwJdRlQ8rr99aVZwe8DdYe/oeN+fa6GGEAAgNF7tu5YH+jwOfO0w47y7qsJHn/H6MC6gfwe5Dn/p31cQACAleRr9Sj77gG8lnUD7M9XawEdcBkgdL+TM7NdX8AIAEx0Z3ci6uEyv4mBY5GnIW6OesTHAgQAmIK8fv9YaRbQmWoIyNn+eYWECX/QA6cAoD95zf6HyjRvcpOTED9i5w8CAExVrnb3wdIs5DMVeUXEvyrNJYqAAACTdTLqE1HXlJV905sc8s8b++QiP29426Ff5gDAcOS8gFeiHo3atsK2LW/oc33p/p4FgAAAo5DL3+a58V1Rd5Zh3PFvFjm/IS/vy2H/JW8vCADAue2J2luaJX2/UOZzM6F5yiH+vEvhQ3b8IAAAFyd3nLlmwNfqiEAGgY0jOOL/Rg0wp7yFIAAAy5eT5x6rtaMGge0De405o//B0lzN4IgfBACgZftq5R36Plua2/T2NSqQtxvO2w7nqYpj3hoQAID5OzO5LmtTDQK/UZqrB+b1vT5dj/RfLM3VCocd7YMAwMVZ1AJaPhJ//azP1paozVEfKM1VBBkQVi9jZ/9aae5Z8Gd1Z3+4/t/gN1EAYJnWagFzkosKHah1ttX1c7eufu/feTvgnLV/qv7zeH0cEAAEAOYQAPK87RGtoCO5cz9apnnfAYa/81+nDd2zFHB/LtUCgLeubHEwKgBMylVaAFA+rAUCwNRsK+Nf5hVgFnk69GptEACm6BYtACYsF7Va0AYBYIquK83lWgBTkxOhb9IGAWCqcuLLC+Xir9EGGLM86n/K0b8AMHV5+cszvgjAhORv3hZtEAAo5bI6EmAxDGAly1HPx0tz6R8CAFXe3e3V0izbCrDSrI/6YdRurRhOGmM48g5vPynN/d/vKe6nDoxfnt68Ier2YpRTAOC878mXa0p+NurbpbkDG8CY5DX+V5bmUr/12iEAcOHWlOYyway8McvB0tyJ7S+0Bhiof1R/u3KC3wbtEACYXQ6b7dQGANpiEiAACAAAgAAAAAgAAIAAAAAIAACAAAAACAAAgAAAAAgAAIAAAAAIAACAAAAACAAAgAAAAAgAAMDPWqUFwBy9EXWk1omo/xP1j6M2Rm2IWreCtvX4Wdv6l/W/vbdua9biCtnOpahjZ23r/466JGr9Wdu62kdfAACm52jUN6P21X8/lwwAO6P+oO44xua1uq3P17BzLpuiroraHbVmhNua7+e3og5GnTzP/3Zb1Gejroxa8JUYpvdowTl9JepObYAL8nrUXXVnuLSMv98edW/UlhFsa+4Eb4s6tMwDrwwBt5dxjIDsibrnAsLcu8lRj5uibu0pCNxVf8d5F5dowXlT7DZtgPN6LOpT9Yj4zWU+xn+LejLq/9YQ8AsD3M6Tdcd/Y9T/WOZjZH8ORz0V9UtRmwf6nubw/meiHoz6q2U+xukalr4X9W/q9nbp5fr8CAACALQsj/Svjbo76m9beLw36w/2S1G/P7AQkDv/XyvNUPibLTze30T9UWnmC/zOwN7XHNn4UNR/aenx/qoGnvdH/YoAIAAIADBueXT3m6UZ8m/b/xxYCMjz+79Rj4rb9p8GFgJeibo86q9bftwMiM+U5rTHvxYA+ucyQGC5rqk7i3nJYfKPlvNPOJu3E/Vo+Mgcn+OR0pxWWOp5W/P9/MSce56fm32+PgIAME4PRe3t4HlyKPqOnrf1xjnv/M8OAc/3uJ05ovPpcv6rGdrw6RqsEACAEcmd8pc6fL5HynxHGs7l2Y53yjeW/kY88j093tFznYr6nK+SAACMS86C73qo+ks9POdSD9uaR8X39PCe5gjHYx0/5/7i/LwAAIzG4Z5+tHPUoevzxnnkf7SHbX2kdD88/s3Sz/yDL/lKCQDAOHyzx+f+dsfP942etjPPxT/d4fPlKYc9PQbK132tBABg2JZKv7O399edYxfyXPihHrf1xY77eqrHbXVFgAAADFyu8vdGj89/ur6GLhwq/V6S1+Xz/6jnz9XLvloCADBsRwfwGo5MZFvziPz4RLb1iK+WAAAM208n9BqGsK1HVtjz/DzHSnendhAAgGU4PoDXcMK22lYEAKBbS7bVtiIAANOzdgCvYY1tta0IAEC3/sUAXsP7OnqejQPY1g0T2dZVUat9vQQAYLg2TOg1vK/n7cyd4vqJvK9bfLUEAGDYNkct9LxT3DyRnVKXvf5Az9t6qa+WAAAMWw7Tbu/x+fO5uzpXnMPim3rc1k92+Fw7a7iawrYiAADLdG2Pz/3xCW3rjg6fa20NAX3I53YKQAAARiB3TH2cM87n3NXxc+bzLfawrVeX7kcfvtDT5+nW0u/ogwAAcBHu7OE5by/dzz/IUx63dPycq3rqb56H7/r0zvqo3b5OAgAwHnmEekWHz7ejPmcfvhy1tcPnu7f0Nyv/qdLt5XiPFpf/CQDA6DxcullAZrHuKPoaJl7V4Y4qg8ZNPb6n+X5+vaPnyiP/y3yNBABgfHJn8eM5h4DF+hzret7WvCTvh3MOAbnzf6n0fz58dw1387Szg+dAAADmaP0cQ8DaukPcOJBt3TLHEJDn339QhjMcfkNpTkXMQ546ylMNC74+/btEC85pWy3g5x+lXxn1X6P+vKXHvKzuEN8/sG39p1G/G/Wnpb076H2xNKcYFge2rWcmBWboOdnC4+XIxjei7ut45/9y1EFfUwFAAID5+MWo3y/NpWs5IvDXy3ycXOTnnqiH6mMOUb7G3fVo/dWy/PvY55D/c6W51HCoR8P/rDSTL/9X1OtRby7zcTJIvBD1O6X7UWcB4BzeowXn9JXSzyU5MFZ5a9lno74TdeACd5B5tHlVaYaHx3RXuNy2vXVbXynnv61uhoa8ouHzpd8VFZfjaNTT9Sj+jQv43+e8jZ11Wzf3+Lrvqr/jCAACAHS8gzwcdSjqL6NOnHUU/Q9Kc7nbtjKM29HO6uQ7tvXMsHlu2y/XI/5NZWWc+z5aA89/r+9pvs+r6ra+t27rxjKMBX4EgHOwAhMwLwv16H4KN3tZrEf12yewrRvKMO4MyYxcBQAAAgAAIAAAAAIAACAAAAACAAAgAAAAAgAAIAAAAAIAACAAAAACAAAgAAAAAgAAIAAAAAIAACAAAAACAAAIAACAAAAACAAAgAAAAAgAAIAAsGKc1gKA0VrSAgFguY5rAcBondACAWC5jmkBgN9wAcCHBwC/4QLABBwvTgMAjNEJAUAAmNU+LQAYnf3FJEABYEYvagGA324BYJop8qQ2AIzGqWL0VgBoQQ4hPaENAKOxp1jHRQBoyYM1UQIwbLnjv18bBIC25GzSx7QBYPByxNbVWwJAq+4vVpUCGLKcr/WgNlyYS7Tggv1N1E+j/p3gBDBIn4n6j9ogAMzDn0f9w6itWgEwKHma9gFtEADm6Y+jNkdt1AqAQTgQdVXUm1ohAMzbH9UQ8H6tAOh95/+xqL/VCgGgC7k2wHNRG6I2aQdArzt/1/wLAJ2HgO9HLRZzAgC6luf8r3LkLwD0KecE/GnUr9cwAMD85KV+Ods/J/w55z+D92hBa1ZH3Rl1Xf13ANqTw/y5yE+uyWKhHwFgkNZG3RK124gAwMxyGfY9dvwCwNhGBHZGXV6aOQLrtQTgguSqq3kn1hfrP92LRQAYtXWluWpgXa0FLQF4y1Ld6ecR/rGoo/W/AQAAAAAAAAAAAAAAAAAAAAAAAAAAAAAAAAAAAAAAAAAAAAAAAAAAAAAAAAAAAAAAAAAAAAAAAAAAAAAAAAAAAAAAAAAAAAAAAAAAAAAAAAAAAAAAAAAAAAAAAAAAAAAAAAAAAAAAAAAAAAAAAAAAAAAAAAAAAAAAAAAAAAAAAAAAAAAAAAAAAAAAAAAAsHz/DzgH4tiu05zdAAAAAElFTkSuQmCC;" parent="1" vertex="1">
                    <mxGeometry x="634" y="-241" width="164" height="164" as="geometry"/>
                </mxCell>
                <mxCell id="52" value="" style="shape=image;verticalLabelPosition=bottom;labelBackgroundColor=#ffffff;verticalAlign=top;aspect=fixed;imageAspect=0;image=data:image/png,iVBORw0KGgoAAAANSUhEUgAAAgAAAAIACAYAAAD0eNT6AAAACXBIWXMAAAsTAAALEwEAmpwYAAAcy0lEQVR4nO3dT8hl5Z0n8G+ZUouXkKEQ0lloBaJxIYTGkhALpCVxMT0MZNNUz2wME7rBnYtOd0jAsRkIvbIHks1Qave4taRhJrNIu0iHjLOoEEppQrmxDMS4GAOWKN01qX4rOotzjca23vu+9znnPufc3+cDDwjlvc/vnPOc53zfc8+fY2FMn0tyNslXknwhye8lualrRQDL9W6SN5L8LMk/JHkuyc+7VrRDjvUuYEd8KclfJvl3vQsB2HE/SPJfkvykdyFLJwC0OZnkvyb5T53rAKjmmSR/luStznUslgCwuS8m+bskd/QuBKCoXyb5oyQ/7V3IEvl9ejNfTfK/4+AP0NMdGebir/YuZImcATi6r2b4y/9470IASJJcz3Am4Pu9C1kSAeBovpghbZ7oXQgAv+PXSf4gfg44NAHg8E4m+cc47Q8wV79M8vtxYeChfKJ3AQvy35I82LsIAG7o32R4/sr/7F3IEjgDcDhfSnKhdxEAHMr98ZyAtdwFcDh/2bsAAA7NnH0IzgCs97kkr/YuAoAjuTMeG3wgZwDWO9u7AACOzNy9hgCw3ld6FwDAkZm71xAA1vtC7wIAODJz9xquAVjvNxGUAJbm3bjV/UACwHrvNX7eOgbYjPl3Qv6yBYCCBAAAKEgAAICCBAAAKEgAAICCBAAAKEgAAICCBAAAKEgAAICCBAAAKEgAAICCBAAAKEgAAICCBAAAKEgAAICCBAAAKEgAAICCBAAAKEgAAICCBAAAKEgAAICCBAAAKEgAAICCjvcugNGdTvJIkoeSfDa2MbC560l+keSHSc4lebFvOYzpWO8CFuC9xs9vax3vJflekj/ZUn9APX+T5NEkV7fU31Lm30WyctZbwgDcS/J8kge20BdQ2/9J8m+znRCwhPl3sVwDsBu+Fwd/YDseSPLd3kXQTjpab+4J9HSSixP3AfBR92X6awLmPv8umjMAy/dI7wKAksw9CycALN9DvQsASjL3LJzTI+vN/RTUftzqB2zf9SQ3T9zH3OffRbNy1pv7AGytD2BTc5/fHOMO4CcAAChIAACAggQAAChIAACAggQAAChIAACAggQAACjIA2RwnyzU5TkihTkDAAAFCQAAUJAAAAAFCQAAUJAAAAAFCQAAUJAAAAAFCQAAUJAAAAAFCQAAUJAAAAAFCQAAUJAAAAAFCQAAUJAAAAAFCQCM7XSSc0kuJ9nP8L7xng0ANjL3A9Bc6ttL8vQI9QgAsD1z37/mXt+iHe9dADthL8nzSR7oXQgAh+MnAMbwvTj4AyzKsd4FLEDraaSp13Hv+k4nudj4HVMyxuHGes8f68y9vkVzBoBWj/QuAICjEwBo9VDvAgA4OqdH1pv7Kaje9e1n3heTGuNwY73nj3XmXt+iOQNAqzkf/AG4AQEAAAoSAACgIAEAAAoSAACgIAEAAAoSAACgIAEAAApyDze9eVAHQAfOAABAQQIAABQkAABAQQIAABQkAABAQQIAABQkAABAQQIAABQkAABAQQIAABQkAABAQQIAABQkAABAQQIAABQkAABAQQIAABQkAABAQQIAABQkAABAQQIAABQkAABAQQIAABQkAABAQcd7F8DiHetdAABH5wwAABQkAABAQQIAABQkAABAQQIAABQkAABAQQIAABQkAABAQQIAABQkAABAQQIAABQkAABAQQIAABQkAABAQQIAABQkAABAQQIAABQkAABAQQIAABQkAABAQQIAABQkAABAQQIAABQkAABAQQIAABQkAABAQQIAABQkAABAQQIAABQkAABAQQIAABQkAABAQQIAABQkAABAQQIAABQkAABAQQIAABQkAABAQQIAABQkAABAQQIAABQkAABAQQIAABQkAABAQQIAABQkAABAQQIAABQkAABAQQIAABQkAABAQQIAABQkAABAQQIAABQkAABAQQIAABQkAABAQQIAABQkAABAQQIAABQkAABAQQIAABQkAABAQQIAABQkAABAQQIAABQkAABAQQIAABQkAABAQQIAABQkAABAQQIAABQkAABAQQIAABQkAABAQQIAABQkAABAQQIAABQkAABAQQIAABQkAABAQQIAABQkAABAQQIAABQkAABAQQIAABQkAABAQQIAABQkAABAQQIAABQkAABAQQIAABQkAABAQQIAABQkAABAQQIAABR0vHcBdPde7wIA2D5nAACgIAEAAAoSAACgIAEAAAoSAACgIAEAAAoSAACgIAEAAAoSAACgIAEAAAoSAACgIAEAAAoSAACgIAEAAAoSAACgoOO9C6C7Y70LALp5r3cB9OMMAAAUJAAAQEECAAAUJAAAQEECAAAUJAAAQEECAAAUJAAA1GT+L84AAKjpk42fvzpKFXQjAADU9OnGz785ShV0IwAA1HRX4+dfH6UKuhEAAGq6t/Hzr4xSBd0IAAA1Pdj4+ZdGqYJuBACAek4m+XLjd1wYoxD6EQAA6nk4yS0Nn38nycWRaoHZeq+xVa8PmJcTSV5L27xxfku1mt8m5AwAQC3fTHJH43c8N0YhMHdzT6Bzrw+YjzNJ9tM2Z1zJcBZhG8xvE3IGAKCGu5P8jyTHG7/nb5P8ur0cmL+5J9C51wf0dybJG2mfL/aTnNpi3eY3upr7AJx7fUA/J5I8nvbT/u+3J7dbvvmNvuY+AOdeH7B9J5M8mvar/T/cria5fZsLMULNHKD1tyAA+rkpw1v9Pp3h2f73ZnjC35fTdp//x/mreP7/TjnWu4AFaE2RU69jKReY2stJTie5tuV+5z7/Lpq7AAA4yPUkX8v2D/5MTAAA4CDfisf+7iSnR9ab+ykoPwEAUzmf5D+m3zwz9/l30ayc9eY+AAUAYAo/SfKVDFf/9zL3+XfR/AQAwEe9nOTfp+/Bn4kJAAB82MtJHkryZu9CmJYAAMD7fpLkD5L8396FMD0BYPmu9y4A2AnnM/zm7y//IgSA5ftF7wKARbue5M8zXO3vN/9CBIDl+2HvAoDFejnJ/Un+Ou4oKkcAWL5zvQsAFuf/JfnPGR7v6yE/RQkAy/dikr/pXQSwCNeTPJXk7iTficf7luYhCest4UEUe0meT/LAFvoCluetJH+b5HsZXhG8FEuYfxfLyllvKQNwL8l3k/zplvoD5u2dDH8YPJfkfyX5dd9yNrKU+XeRrJz1ljYATyd5JMODPD6b5PiW+we262qGW/deT/JKkpeSXMjw2/5+x7rGsLT5d1GsnPUMQIA+zL8TchEgABQkAABAQQIAABQkAABAQQIAABQkAABAQQIAABQkAABAQQIAABQkAABAQQIAABQkAABAQQIAABQkAABAQQIAABQkAABAQQIAABQkAABAQQIAABQkAABAQQIAABQkAABAQQIAABQkAABAQQIAABQkAABAQQIAABQkAABAQQIAABQkAABAQQIAABQkAABAQQIAABQkAABAQQIAABQkAABAQQIAABQkAABAQQIAABQkALBtp5OcS3I5yX6S9zq3/VUt51a1AUCS9gMMg70kT6f/AX9de3pVK9Cf+ZeuDMB2e0leSP+D+2HbCxECYA7Mv3RlALZbwl/+H21PTbImgKMw/9KVAdjmdPofzDdtrgmAvsy/E3IRIFN7pHcBDZZcO8CBBACm9lDvAhosuXaAAx3rXcACtJ5Gqr6O95Mc713Ehq4nubl3EVCY+XdCVs56BmCbpf8OV3370dfNSe5Lcn+Se5N8PsntSW7LB3eqXE3yZpLXk7yS5KUkF5JczBDAl8z8S1cuQmnT+0I+24+lOZHkbJLzSd7O5mP37dV3nF195xLZf+nKAGzT+wBu+7EUp5I8keRKxh/HV1bffWprSzMO+y9dGYBteh/AbT/m7vYkT2Y7j8beX/V1+1aWrJ39l64MwDa9D+C2H3N1a5LHMvyGv+1xfXXV962TL2Ub+y9dGYBteh/AbT/m6L4kl9J/fF9a1TJX9l+6MgDb9J7gbD/m5FiSb2Qeb8J8v+2vaprjFfP2X7oyANv0ntxsP+ZiL8mz6T+mb9SezfxegmX/pSsDsE3v9de7f0iG+/YvpP9Bfl27sKp1Luy/dGUAtum9/nr3D5/JPH7vP2y7tKp5Duy/dGUAtum9/nr3T223ZVkH/w+HgDmcCbD/0pUB2Kb3+uvdP3XtZRmn/W/ULqT/NQH2X7oyANv0Xn+9+6emY5n3BX+Hbc+m790B9l+6MgDb9F5/vfunpm+k/8F7rPaNkdfNUdh/6coAbNN7/fXun3ruy7zu829t++n3sCD774Tm+OCHuWkdRNXXce/117t/ark1yYtJ7uldyMheTnI6ybUt92v/ndDx3gUA7JC/yPgH/39J8qMkP84QLl5N8qsk/7T6908m+XSSOzMcpB9M8uUkt4xYwz0Zlu07I34nzJ5TUG16r7/e/VPH7Rn3xT6vJXk0yckNajm5+uxrI9ZzNdt/i6D9l64MwDa911/v/qnjyYxzoN1P8niSEyPUdGL1XWNdk/DkCDUdhf2XrgzANr3XX+/+qeFUxjnIvpHkzAT1nVl99xjh5NQE9d2I/ZeuDMA2vddf7/6p4YmMc/C/e8Ia7844IeCJCWv8KPsvXRmAbXqvv979s/tOJLmStnG2n2n+8v+oM2k/U3El4/w8cRj2X7oyANv0Xn+9+2f3nU37OHt8i/U+PkK9Z7dUq/2XrgzANr3XX+/+2X3n0zbGXsv2/qLOqq/WuwPOb6lW+y9dGYBteq+/3v2z225O8nbaxtijW6966LOl5rczLPvU7L90ZQC26b3+evfPbrs/bePrWja7z7/VyVXfLbXfv4U67b8Tuql3AQAL1noQ/FGSt8Yo5IjeWvXdYhsBgAkJAACbu7fx8z8epYo+fbcuO50JAACb+3zj518cpYrNvNT4+dZlpzMBAGBzrc/Gf3WUKjZzufHz234vACMTAAA2d1vj5381ShV9+m5ddjrzruT1Wq8krb6Oe6+/3v2z21rH1yeSvDtGIRu4KclvGr9j6v3D/jshZwB2z+kk5zKc3hvrDWCVb8Ppvf72M2zLcxm2LQBbspQD4F6Sp0eod26tVe/6x25PZ9jWzMM/p217fmr7Jf/Wpw6o6zDtn7dQY+/5g+KWMAD3krwwQq1zbK161z9FeyFCwFy0PlL3ru2X/Ft3HVDXYdprW6ix9/yx0/wEsBu+l+SB3kWwNQ8k+W7vIkiSvN74+TtHqWIzreGjddnpTABYvtNJ/qR3EWzdn8Y1AXPwSuPne27D1gf5tC47nQkAy/dI7wLoxrbvr/VhOg+OUkWfvluXHWZv7r9BXR6hxjm3Vr3rn7K1PsiFdl4GNK3e88dOcwZg+T7buwC6se37u5jknYbP35Lk4ZFqOYqHV31v6p0My86CCQDLd7x3ARO6PpPvmKtd3vZLsZ/k+cbv+PMkJ0ao5bBOrPps8XyGZWfBBADm7Bcz+Q44yHONn78jyTfHKOSQvrnqs0XrMsMizP03qN6/Q0/Zzo2wfs7NYDmmbPR3IsmVtG3H/SRntlDrmbQ/IfRKtnfGwv5BV3MfgL0PQFO2MW6ROj2D5ZiyMQ9PpH1bvpHk7glrvHvVR2udT0xY40fZP+hq7gOw9wFoqvbUiOtoFx+RbIKbl1MZ590bb2SaMwFnMs7Bf3+1rNti/6CruQ/A3gegKdrYj7r1qGS24cmMs033kzyecU6zn1h911gvBntyhJqOwv5BV3MfgL0PQGO3pzLNc+73Vt/de/nGbszH7UmuZrxt+1qSR7PZcwJOrj7b+q6CD7erq2XcJvsHXc19APY+ALW2bb/udm6vS577+OJoHsv42/hakr9P8u0kf5jhGf6fynAX102r/75r9W/fXv2/rQ/5+bj22Ijr6bDsHxM61ruABWgdRFOv47nXx8Fsv91ya5IXk9zTu5CRvZwhPF/bcr/2jwl5DgDAeK4l+Vp26wFU1zMs07YP/kxMAAAY18Uk3+pdxIi+FY/9pai5/wY19/o4mO23m44leTbj/w6/7fZs+p5Gt3/Q1dwH4Nzr42C23+7aS3Ih/Q/im7YLmeaOnKOwf9DV3Afg3OvjYLbfbrstyaX0P5gftV1a1d6b/YOu5j4A514fB7P9dt9nsqwQcGlV8xzYP+hq7gNw7vVxMNuvhtuyjJ8DLmQef/m/z/4xIfdIrtc6iDwHgIPYfm1uTnJfkvuT3Jvk8xmeVndbPvj9+mqSN5O8nuSVJC9lONBdzHbfab+X5L8n+eMt9nkU55N8PcP6mgv7B13NPYHOvT4OZvsd3YkkZzMcsN7O5uvu7dV3nM32Xm97LMk3Mq+nUO6vaprjwdL+QVdzH4Bzr4+D2X6HdyrDq2ivZPyD4JXVd2/rTXf3ZR7XBVxa1TJX9g+6mvsAnHt9HMz2W+/2DG+h28Zfzfurvrbx0ptbMzxff8wXCB22XV31fevkS9nG/kFXcx+Ac6+Pg9l+N1blALmrAWcM9g+6mvsAnHt9HMz2+3gVT5Hv0k8cY7F/0NXcB+Dc6+Ngtt/vcpHcsi9yHJv9Y0JzvOpzbloHkdsAOYjt9wG3yf1rS7rNcQr2D7qaewLt/dfRGH9dXU5yLsP7xqd2etXX5czrr8y5jq9t8aAcPo79g67mPgB7T4hjt6czzQtI9lbf3Xv5xm67wKNyuRH7B13NfQD2ngynaC9k3BCwt/rO3ss1RVs6L8vhINX3Dzqb+wDsPRFO1Z4acR3t4l/+uzDBeV0u61TeP5iBuQ/A3pPglG2MawJOz2A5pmxLdSzJs+m//lrbs3Gh2ZSq7h9bcVPvAuAAj8zkOxjfn2W+V/sfxR9nWBZYHMl1vdYUOffbAOfs1SR3NX7H5SR3jlDLXC1xH74vw+nz470LGcn1DLfpXexdyA6a+/y7aFbOenMfgLscAK5nuA+6xX5250DzcZa2D9+a5MUk9/QuZGQvZ/i56VrvQnbM3OffRdvlibGK69nd7TjGcu3qukmGbb80f5HxD/7/kuRHSX6cIVy8muRXSf5p9e+fTPLpDGeCTid5MMmXk9wyYg33ZFi274z4nUBnc78I5fIINc65tepd/5Tt8gjrZ5tuz7gv9nktyaNJTm5Qy8nVZ18bsZ6rWc5Ldpai9/xBcXMfgOdGqHHOrVXv+qds50ZYP9v0ZMZZ7v0kj2ec59ufWH3XWE+FfHKEmvhA7/mD4uY+AN3mdrDe9U/ZtvHo5LGcyjgH2TeSnJmgvjOr726tbz/Le+PenPWePyhuCQPQg25urHf9U7UxH5S0DU+kfZnfSHL3hDXenXFCwBMT1lhN7/mD4pYwAD3q9sZ61z9FG/tRyVM7kfZ33O9nmr/8P+pM2s9UXMlyX787N73nD4pbygDcy/BXYe+D09itVe/6x25PZVkH/2R4H33rcj++xXofH6Hes1usd5f1nj8obmkD0Otuf1fv+lvbtl+XPIXzaVsHr2W7f1GfSPvdAee3WO8u6z1/UJwB2Kb3+uvdf3U3J3k7bdvg0a1XPfTZUvPbaX+IFfZfOjMA2/Ref737r+7+tK3/a9nsPv9WJ1d9t9R+/9ar3j323wl5GRAwpdaD4I+SvDVGIUf01qrvFgIAsyYAAFO6t/HzPx6lij59ty47TEoAAKb0+cbPvzhKFZt5qfHzrcsOkxIAgCm1Phv/1VGq2Ezruxa8F4BZEwCAKd3W+PlfjVJFn75blx0m5V3J67VeSVp9Hfdef737r651/X8iybtjFLKBm5L8pvE7jJ829t8JOQMAAAUJAMCUrjZ+/pOjVNGn79Zlh0kJAMCU3mz8/KdHqaJP363LDpMSAIApvd74+TtHqWIzdzV+vnXZYVICADClVxo/3/MFSK0P8mlddpiUAABMqfVhOg+OUkWfvluXHejMyyja9F5/vfuvzsuAaGH/nZAzAMCULiZ5p+HztyR5eKRajuLhVd+beifDsgMLJoG26b3+evdPcj5t2+C1JCe2WO+JVZ8tNZ/fYr27zP47IWcAgKk91/j5O5J8c4xCDumbqz5btC4zMAMSaJve6693/wx/UV9J23bYT3JmC7WeWfXVUuuVbPeMxS6z/9KVAdim9/rr3T+DJ9K+Ld5IcveENd696qO1zicmrLEa+y9dGYBteq+/3v0zOJX2v6zfDwFTnAk4k3EO/vurZWUc9l+6MgDb9F5/vfvnA0+mfXu8f5B9POOcZj+x+q4xwsl7q2VkPPZfujIA2/Ref7375wO3Z3hBzhgH2vcyXKn/aDZ7TsDJ1Wdbr/b/cLu6WkbGY/+lKwOwTe/117t/ftdjGe+A+367luTvk3w7yR9meIb/pzLc5XTT6r/vWv3bt1f/b+tDfj6uPTbiemJg/53Qsd4FLEDrIKq+jpe+E1bffmO7NcmLSe7pXcjIXs7w3oJrvQvZMebfCXkOALBN15J8Lcn13oWM6HqGZXLwZ1EEAGDbLib5Vu8iRvSteOwv7CS/QbUZ+3fWbTemcSzJs+m/fVvbs3GaeUr2X7oyANv0nqBtv/naS3Ih/bfxpu3CahmYjv2XrgzANr0nadtv3m5Lcin9t/NR26VV7UzL/ktXBmCb3hO17Td/n8myQsClVc1Mz/5LVwZgm96Tte23DLdlGT8HXIi//LfJ/ktXBmCbsR6x2qPtT7A+uLG9zPvCwGfjN/9tM//SlQHY5nL6T9ybtssTrA8OdizJNzKv4Li/qsnV/ttn/qUrA7DNufSfwDdt5yZYHxzOfZnHdQGXVrXQh/mXrgzANqfTfxLftJ2eYH1weLdmeL7+mC8QOmy7uur71smXkoOYf+nKAGz3dPofzI/anppkTbCJ2zO8ZncbPwvsr/ryVr95MP/SlQHYbi/JC+l/UD9seyEu9pqjU0meSHIl42/zK6vvPrW1peEwzL90ZQCOYy/DX9W9D+7r2lNx8J+7E0nOJjmf5O1svq3fXn3H2dV3Mj/m3wm5qnW91kFkHf+u00keSfJQks8mOd63nFxP8oskP8xw0d+LfcvhiG7OcJHe/UnuTfL5DKfvb8sHQe5qkjeTvJ7klSQvZbif/2Lc6jl35t8JWTnrGYAAfZh/J+R1wABQkAAAAAUJAABQkAAAAAUJAABQkAAAAAUJAABQkAAAAAUJAABQkAAAAAUJAABQkAAAAAUJAABQkAAAAAUJAABQkAAAAAUJAABQkAAAAAUJAABQkAAAAAUJAABQkAAAAAUJAABQkAAAAAUJAABQkAAAAAUJAABQkAAAAAUJAABQkAAAAAUJAABQkAAAAAUJAABQkAAAAAUJAABQkAAAAAUJAABQkAAAAAUJAABQkAAAAAUJAABQkAAAAAUJAABQkAAAAAUJAABQkAAAAAUJAABQkAAAAAUJAABQkAAAAAUJAABQkAAAAAUJAABQkAAAAAUJAABQkAAAAAUJAABQkAAAAAUJAABQkAAAAAUJAABQkAAAAAUJAABQ0PHeBSzAu2kLSu+NVQgAh/Zu7wLmzhmA9d7oXQAAR2buXkMAWO9nvQsA4MjM3WsIAOv9Q+8CADgyc/cax3oXsACfS/Jq7yIAOJI7k/y8dxFz5gzAej9P8oPeRQBwaD+Ig/9azgAczpeSXOhdBACHcn+Sn/QuYu6cATicnyR5pncRAKz1TBz8D8UZgMM7meQfk9zRuxAAPtYvk/x+krd6F7IEzgAc3ltJ/ijJr3sXAsC/8usMc7SD/yEJAEfz0yT/Icn13oUA8FvXM8zNP+1dyJIIAEf3/TgTADAX7//l//3ehSyNawA298UkfxfXBAD08ssMB39/+W/AGYDN/TTDxSbPdK4DoKJnMszBDv4bEgDavJXk6xnuOfWwIIDp/SDDnPv1uOCviZ8AxvW5JGeTfCXJF5L8XoQsgE29m+Gtfj/L8Gz/5+IJf6P5/7ykaEaKvss5AAAAAElFTkSuQmCC;" parent="1" vertex="1">
                    <mxGeometry x="249" y="-215" width="129" height="129" as="geometry"/>
                </mxCell>
                <mxCell id="53" value="&lt;font style=&quot;font-size: 23px&quot;&gt;PC端操作部分&lt;/font&gt;" style="text;html=1;resizable=0;autosize=1;align=center;verticalAlign=middle;points=[];fillColor=none;strokeColor=none;rounded=0;" parent="1" vertex="1">
                    <mxGeometry x="-134" y="-130" width="157" height="21" as="geometry"/>
                </mxCell>
                <mxCell id="54" value="&lt;span style=&quot;font-size: 23px&quot;&gt;温控控制部分&lt;/span&gt;" style="text;html=1;resizable=0;autosize=1;align=center;verticalAlign=middle;points=[];fillColor=none;strokeColor=none;rounded=0;" parent="1" vertex="1">
                    <mxGeometry x="236" y="-63" width="148" height="21" as="geometry"/>
                </mxCell>
                <mxCell id="55" value="&lt;span style=&quot;font-size: 23px&quot;&gt;温控执行部分&lt;/span&gt;" style="text;html=1;resizable=0;autosize=1;align=center;verticalAlign=middle;points=[];fillColor=none;strokeColor=none;rounded=0;" parent="1" vertex="1">
                    <mxGeometry x="642" y="-66" width="148" height="21" as="geometry"/>
                </mxCell>
                <mxCell id="56" value="" style="endArrow=none;dashed=1;html=1;fontSize=23;exitX=1;exitY=0.5;exitDx=0;exitDy=0;entryX=0;entryY=0.75;entryDx=0;entryDy=0;" parent="1" source="50" target="52" edge="1">
                    <mxGeometry width="50" height="50" relative="1" as="geometry">
                        <mxPoint x="232" y="-146" as="sourcePoint"/>
                        <mxPoint x="282" y="-196" as="targetPoint"/>
                    </mxGeometry>
                </mxCell>
                <mxCell id="57" value="&lt;font style=&quot;font-size: 23px&quot;&gt;串口连接&lt;/font&gt;" style="text;html=1;resizable=0;autosize=1;align=center;verticalAlign=middle;points=[];fillColor=none;strokeColor=none;rounded=0;" parent="1" vertex="1">
                    <mxGeometry x="71" y="-177" width="102" height="21" as="geometry"/>
                </mxCell>
                <mxCell id="58" value="" style="endArrow=none;dashed=1;html=1;fontSize=23;exitX=1;exitY=0.75;exitDx=0;exitDy=0;entryX=0;entryY=0.75;entryDx=0;entryDy=0;" parent="1" source="52" target="51" edge="1">
                    <mxGeometry width="50" height="50" relative="1" as="geometry">
                        <mxPoint x="396" y="-10" as="sourcePoint"/>
                        <mxPoint x="651" y="91.25" as="targetPoint"/>
                    </mxGeometry>
                </mxCell>
                <mxCell id="59" value="&lt;font style=&quot;font-size: 16px&quot;&gt;传感器、制冷片连接线&lt;/font&gt;" style="text;html=1;resizable=0;autosize=1;align=center;verticalAlign=middle;points=[];fillColor=none;strokeColor=none;rounded=0;" parent="1" vertex="1">
                    <mxGeometry x="415" y="-140" width="170" height="18" as="geometry"/>
                </mxCell>
            </root>
        </mxGraphModel>
    </diagram>
</mxfile>